<?xml version="1.0" encoding="utf-8"?>
<!-- Generator: Adobe Illustrator 15.0.0, SVG Export Plug-In . SVG Version: 6.00 Build 0)  -->
<!DOCTYPE svg PUBLIC "-//W3C//DTD SVG 1.1//EN" "http://www.w3.org/Graphics/SVG/1.1/DTD/svg11.dtd">
<svg version="1.1" id="Layer_1" xmlns="http://www.w3.org/2000/svg" xmlns:xlink="http://www.w3.org/1999/xlink" x="0px" y="0px"
	 width="596px" height="226.77px" viewBox="0 0 596 226.77" enable-background="new 0 0 596 226.77" xml:space="preserve">
<g>
	<rect x="19.994" y="18.795" fill="#0065BD" width="190.463" height="190.462"/>
	<g>
		<defs>
			<rect id="SVGID_1_" x="19.994" y="10.983" width="553.72" height="198.916"/>
		</defs>
		<clipPath id="SVGID_2_">
			<use xlink:href="#SVGID_1_"  overflow="visible"/>
		</clipPath>
		<path clip-path="url(#SVGID_2_)" fill="#FFFFFF" d="M174.364,101.39l4.88-3.561c-1.845-1.978-3.824-4.352-3.824-8.176
			c0-2.9,1.979-6.065,4.483-7.384c-1.318-1.582-3.43-3.031-6.46-3.031c-3.957,0-7.254,2.9-7.254,6.723
			c0,2.636,1.715,4.88,3.694,5.934C169.883,95.587,171.598,98.883,174.364,101.39 M148.26,75.414l4.087-7.254h-6.066
			c0,1.318-1.188,2.769-2.64,2.769c-1.579,0-2.635-1.054-2.635-2.769h-5.407c0,1.583-1.186,2.769-2.636,2.769
			s-2.639-1.186-2.639-2.769h-6.065l3.561,6.988c2.771-0.263,5.405-0.393,8.043-0.393C140.74,74.755,144.962,75.017,148.26,75.414
			 M137.182,139.759c-0.659-1.186-1.318-2.638-1.318-5.272c0-3.43,1.977-6.33,6.198-8.178c2.769-1.317,4.876-2.504,8.57-4.349
			c8.702-4.482,11.735-12.923,11.735-21.625c0-4.351-1.188-7.78-2.637-10.682c0.393,2.375,0.79,4.354,0.79,6.726
			c0,9.099-3.164,15.824-11.471,19.911c-5.272,2.636-7.913,3.691-11.078,5.274c-4.479,2.372-6.987,5.407-6.987,9.099
			C130.984,135.275,133.355,138.705,137.182,139.759 M132.04,138.047c-1.449-1.453-3.031-4.09-3.031-7.518
			c0-4.35,2.899-8.042,8.042-10.681c4.482-2.109,7.119-3.165,11.073-5.011c8.31-4.086,10.814-11.075,10.814-18.59
			c0-7.254-2.372-10.946-4.352-13.319c1.451,2.77,1.847,6.065,1.847,8.836c0,8.043-2.372,15.031-11.735,18.723
			c-4.748,1.978-7.781,2.637-11.867,4.481c-6.463,3.035-8.967,6.595-8.967,11.867C123.864,131.848,127.03,136.594,132.04,138.047
			 M127.03,136.99c-2.244-1.846-5.145-4.878-5.145-10.285c0-5.668,2.375-9.888,9.758-13.052c4.75-1.978,7.253-2.901,11.737-4.616
			c9.493-3.56,11.47-10.548,11.47-17.406c0-6.591-2.374-10.417-5.274-12.92c1.715,2.109,2.771,5.67,2.771,9.361
			c0,8.702-3.297,13.582-12.659,16.879c-3.824,1.186-7.911,2.372-12.132,3.955c-7.646,2.901-11.603,7.12-11.603,14.242
			C115.954,130.529,121.623,136.068,127.03,136.99 M121.754,136.068c-5.274-2.637-7.781-8.307-7.781-13.319
			c0-7.251,4.483-12.394,11.998-15.165c4.619-1.712,8.31-2.766,12.925-4.349c8.967-3.165,11.868-7.384,11.868-15.427
			c0-4.616-1.715-8.57-4.483-10.812c0.922,1.054,1.186,2.372,1.186,3.56c0,2.241-1.186,3.295-2.901,3.295
			c-1.056,0-2.111-0.659-2.241-1.713c0.526,0.393,0.923,0.527,1.452,0.527c1.448,0,2.239-1.055,2.239-2.505
			c0-2.242-2.109-3.43-4.219-3.692c-1.847-0.264-3.826-0.264-6.066-0.264s-4.351,0.132-7.12,0.264
			c1.713,2.374,7.384,1.715,9.097,2.901c-1.452-0.13-2.9-0.13-4.353,0.262c0,0.926-0.392,1.979-1.316,1.979
			c-1.715,0-2.506-1.845-3.692-5.143l-6.725,0.529c-1.056,0.13-1.45,0.526-1.32,1.318l0.661,6.593c0,0.263,0.264,0.395,0.529,0.395
			c0.262,0,0.524-0.132,0.657-0.529c0.264-0.526,1.057-1.712,3.033-1.712c2.901,0,5.142,2.638,5.272,5.669
			c-1.054-1.448-3.425-2.768-7.384-2.768c-3.031,0-5.535,0.923-9.492,0.923c-4.218,0-6.593-1.583-6.593-3.56
			c0-0.923,0.13-1.452,0.659-2.111c-1.714,0.792-3.033,2.244-3.033,4.616c0,2.9,2.111,5.936,8.306,5.936
			c5.669,0,8.309-3.562,13.45-3.562c2.374,0,3.562,1.187,3.562,2.506c0,1.186-1.058,2.242-2.9,2.242
			c-2.244,0-3.823-1.187-4.616-2.374c-0.132-0.265-0.264-0.395-0.529-0.395c-0.392,0-0.527,0.263-0.527,0.527l0.135,6.328
			c0,0.792,0.392,1.188,1.318,1.056c3.954-0.396,8.041-0.923,11.867-1.186c7.12-0.659,12-5.408,12-10.681
			c0-0.792,0-1.453-0.132-2.241c0.658,1.055,0.922,2.109,0.922,3.428c0,4.88-2.636,8.571-11.074,10.813
			c-4.485,1.186-7.781,1.713-11.607,2.636c-10.153,2.374-16.744,10.152-16.744,18.857
			C108.042,127.762,113.712,135.014,121.754,136.068 M77.581,88.468c0.529-1.187,0.661-2.242,0.661-3.034
			c0-1.715-0.793-3.295-1.583-3.954c1.978,0,3.69,1.449,3.69,3.428C80.35,86.752,79.163,87.94,77.581,88.468 M101.844,119.849
			l4.219-2.241c1.45-8.833,6.724-15.031,15.954-17.273c-4.878,0.263-9.099,0.395-15.031,0.659
			c-6.328,0.263-16.745,1.056-23.997,1.583c-1.452,0.133-2.374-0.396-2.771-1.583c-0.395-1.318-1.186-3.824-1.318-5.274
			c-0.133-1.186,0.133-1.979,1.188-2.768c2.107-1.453,4.219-3.166,4.219-6.726c0-3.824-3.297-6.328-6.331-6.328
			c-1.054,0-1.845,0.13-2.504,0.393c-0.793-0.525-1.583-0.921-3.165-0.921c-2.244,0-4.219,1.45-4.748,2.636
			c-3.822-0.263-6.855,2.506-6.592,6.198c0.527-0.528,1.582-1.054,2.771-1.054c1.448,0,2.768,1.054,2.768,2.637
			c0,1.45-0.264,3.297-0.264,5.273c0,6.067,4.88,9.233,4.88,12.396c0,1.583-1.188,2.901-2.771,2.901
			c0.923,3.297,3.956,5.01,8.042,5.01c2.639,0,5.012-0.263,8.835-0.263C96.175,115.103,100.919,116.289,101.844,119.849
			 M142.455,157.166h1.322c-0.136-4.221-1.188-7.123-2.9-10.153c-0.926-1.714-2.112-3.56-3.036-4.749
			c-0.527-0.79-1.188-1.053-1.977-1.053c-0.529,0-0.923,0.393-0.529,1.053c1.058,1.715,2.506,4.353,4.353,8.439
			c-1.583,0.264-1.979,1.056-1.979,2.373C137.708,155.186,139.688,157.166,142.455,157.166 M72.44,88.994
			c0.13-3.692-1.451-5.669-3.692-6.593c0.395-0.132,0.922-0.396,1.712-0.396c1.716,0,3.562,1.452,3.562,3.694
			C74.022,86.885,73.626,88.203,72.44,88.994 M156.96,181.822c-0.527-1.187-2.241-2.372-4.351-2.372
			c-1.188,0-1.977,0.263-2.506,0.526c0.132-1.056,1.188-2.242,3.297-2.242C155.905,177.734,157.223,179.713,156.96,181.822
			 M156.169,187.492c-0.792-0.923-2.107-1.714-3.822-1.714c-2.111,0-3.165,0.924-3.694,1.583c-0.262-1.583,1.056-3.561,3.562-3.561
			C154.851,183.801,156.169,185.646,156.169,187.492 M62.42,124.595c0.921-2.243,3.031-3.823,5.537-4.35
			c0.525-0.793,1.186-1.45,1.847-1.979l-4.483-18.724c-0.529-1.316-0.925-2.635-0.925-4.483c0-1.976,0.396-3.955,0.396-5.009
			c0-0.923-0.527-1.186-1.054-1.186c-0.397,0-0.661,0-0.792,0.13v0.529c0,3.031-1.849,5.405-4.879,5.405
			c-3.031,0-5.407-2.504-5.407-5.405s2.375-5.276,5.407-5.276c0.527,0,1.188,0,1.977,0.265c0.924-2.373,3.824-4.483,6.855-4.087
			c-2.107-2.639-5.273-4.221-8.833-4.221c-7.649,0-13.712,5.539-13.712,13.319c0,7.25,5.934,13.053,13.317,13.186L62.42,124.595z
			 M82.857,152.945c1.977,0,4.086-1.056,6.063-3.031c3.56-3.43,8.573-8.571,11.605-10.552c2.636-1.713,4.351-2.372,6.064-2.372
			c1.056,0,1.849,0.265,2.639,1.057l4.483-3.431c-5.143-3.823-7.516-8.834-7.649-15.029c-7.12,3.822-12.262,9.098-18.198,14.106
			c-1.054,0.793-1.581,1.186-2.504,1.186c-0.924,0-1.714-0.922-3.297-2.504c-1.318-1.318-1.583-2.109-1.583-3.032
			c0-1.581,0.529-2.11,0.529-4.219c0-4.22-3.295-6.594-6.46-6.594c-2.638,0-4.616,1.45-5.274,3.298
			c-3.562,0.262-5.803,2.9-5.803,5.666c0,0.662,0.133,1.19,0.266,1.584c-1.318,0.793-2.641,2.373-2.641,4.484
			c0,2.242,1.188,4.353,3.167,5.011c-0.266-0.397-0.396-0.924-0.396-1.583c0-1.186,1.056-2.241,2.506-2.241
			c1.186,0,1.978,0.396,2.901,1.451c1.185,1.581,2.374,3.033,4.351,4.746c1.847,1.583,3.955,2.637,5.934,3.825
			c1.187,0.789,2.108,1.845,2.108,3.427c0,1.057-0.79,2.242-2.372,2.64C79.955,152.286,81.274,152.945,82.857,152.945
			 M75.34,127.232c-0.131-2.638-2.108-4.745-4.615-5.272c0.397-0.268,1.054-0.658,2.11-0.658c1.844,0,3.297,1.579,3.297,3.293
			C76.132,125.914,75.736,126.573,75.34,127.232 M89.977,196.59c-0.529-0.659-0.792-1.317-0.792-2.109
			c0-1.581,1.318-2.77,3.163-2.77c2.901,0,4.483,3.166,8.31,3.166c4.351,0,6.458-3.166,10.415-3.166c1.979,0,4.75,1.188,4.75,3.692
			c0,0.397-0.136,0.792-0.396,1.057c4.483,0,7.645-3.825,7.645-10.155c0-8.834-0.26-12.394-0.393-17.271
			c3.43-0.134,6.724-1.849,6.194-7.253c-0.921,0.79-1.975,1.187-3.161,1.187c-1.582,0-2.771-1.187-2.771-2.901
			c0-0.793,0-1.715,0.13-2.638l15.43-0.397c-1.45-0.788-2.504-2.372-2.504-4.217c0-1.317,0.527-2.242,1.582-2.771
			c-1.452-3.03-2.638-5.404-4.086-7.646c-0.793-1.187-1.715-2.374-3.562-2.374c-4.089-0.132-12.394,1.054-16.615,2.506
			c-3.163,1.054-6.198,3.429-6.198,8.833c0,5.012,1.715,13.847,1.583,27.69c0,1.979-0.526,2.639-1.713,2.9
			c-1.055,0.266-3.824,0.527-5.539,0.266c-0.922-0.134-1.715-0.791-2.242-2.769c-0.659-2.771-2.636-5.539-6.592-5.539
			c-3.562,0-6.724,2.638-6.196,6.592c-1.715,1.057-2.506,2.771-2.506,4.353c0,1.582,0.526,2.899,1.186,3.692
			c-0.395,0.923-0.524,1.449-0.524,2.372C84.572,194.218,87.473,196.59,89.977,196.59 M71.383,130.793
			c-0.79-1.581-2.504-2.504-4.483-2.504c-0.79,0-1.448,0.131-1.976,0.263c0.263-1.058,1.451-1.979,3.165-1.979
			C70.331,126.573,71.779,128.289,71.383,130.793 M94.46,181.822c-0.528-1.187-2.242-2.372-4.351-2.372
			c-1.188,0-1.979,0.263-2.506,0.526c0.13-1.056,1.188-2.242,3.297-2.242C93.404,177.734,94.723,179.713,94.46,181.822
			 M83.25,193.294c-0.393-0.79-0.526-1.583-0.526-2.374s0.133-1.449,0.395-2.108c-0.659-1.188-1.056-2.507-1.056-3.956
			c0-1.979,0.925-3.823,2.244-5.012l-8.175-35.468c-1.32-0.66-2.638-1.452-3.692-2.375c-1.847-1.582-2.901-2.768-4.616-4.746
			c-0.529-0.526-0.925-0.791-1.45-0.791c-0.793,0-1.318,0.526-1.054,1.583l1.712,8.173l3.56,2.506l9.888,42.46L83.25,193.294z
			 M93.671,187.492c-0.793-0.923-2.111-1.714-3.826-1.714c-2.111,0-3.165,0.924-3.694,1.583c-0.26-1.583,1.058-3.561,3.562-3.561
			C92.349,183.801,93.671,185.646,93.671,187.492 M28.53,197.382l8.043-6.196l9.89-42.46l3.56-2.506l7.914-34.018l-1.715-7.911
			c-1.979-0.397-3.694-0.923-5.142-1.715L28.53,197.382z M152.477,196.59c-0.527-0.659-0.791-1.317-0.791-2.109
			c0-1.581,1.318-2.77,3.165-2.77c2.901,0,4.483,3.166,8.308,3.166c4.349,0,6.46-3.166,10.415-3.166
			c1.979,0,4.748,1.188,4.748,3.692c0,0.397-0.133,0.792-0.395,1.057c4.483,0,7.646-3.825,7.646-10.155
			c0-8.437-0.789-17.798-1.714-27.162c2.374-0.526,4.616-2.899,4.616-5.933c0-1.055-0.393-2.243-1.054-3.296
			c-0.661,0.924-1.848,1.713-3.823,2.241c-2.771,0.79-6.198,1.186-8.706,1.186c-5.669,0-7.515-0.396-10.151-1.186
			c-0.134-3.56-2.374-6.462-4.483-8.439c3.295,1.318,4.746,1.978,10.021,1.978c16.878,0,27.295-11.339,27.295-24.263
			c0-9.363-5.934-13.712-11.341-16.877l-5.01,3.56c6.065,2.769,10.02,6.855,10.02,12.395c0,6.065-4.876,10.419-10.545,10.419
			c-6.068,0-10.813-4.354-10.813-10.287c0-4.481,2.107-7.779,6.064-10.943c3.957-3.163,10.022-6.987,13.32-10.547
			c1.714-1.849,3.162-4.75,3.031-6.992c2.241-1.054,3.956-3.293,3.956-6.196c0-3.823-3.69-6.723-7.646-6.723
			c-2.376,0-5.01,1.449-6.332,3.031c2.375,0.924,4.617,4.087,4.617,7.384c0,2.771-1.712,5.143-3.691,7.12
			c-3.033,3.035-6.988,5.277-11.34,8.836c-5.274,4.351-8.44,9.493-8.44,15.295c0,8.044,6.198,15.56,15.954,15.56
			c3.166,0,5.671-0.659,7.518-1.848c-3.165,3.693-9.096,5.54-15.295,5.54c-5.408,0-9.098-0.794-13.053-3.692
			c-3.562-2.637-6.331-8.835-6.198-13.449c-2.901,1.714-6.331,3.294-9.231,4.614c-4.088,1.978-5.407,4.087-5.407,7.646
			c0,4.748,3.297,8.44,4.746,11.209c1.979,3.559,2.638,6.726,2.901,10.021c0.793,8.044,5.409,11.735,13.582,11.735
			c3.694,0,8.57-0.265,10.549-0.529c0.792,3.694,1.715,8.045,1.715,11.341c0,1.979-0.528,2.639-1.715,2.9
			c-1.054,0.266-3.824,0.527-5.537,0.266c-0.921-0.134-1.715-0.791-2.243-2.769c-0.657-2.771-2.637-5.539-6.591-5.539
			c-3.562,0-6.725,2.638-6.198,6.592c-1.715,1.057-2.506,2.771-2.506,4.353c0,1.582,0.527,2.899,1.188,3.692
			c-0.396,0.923-0.529,1.449-0.529,2.372C147.07,194.218,149.973,196.59,152.477,196.59"/>
		<path clip-path="url(#SVGID_2_)" fill="#0065BD" d="M508.723,209.258h18.791v-6.209h-10.938v-4.41h10.575v-6.048h-10.575v-4.369
			h10.938v-6.212h-18.791V209.258z M481.313,209.258h21.399v-6.369H490.93l11.581-15.148v-5.73h-20.956v6.371h11.139l-11.38,14.867
			V209.258z M462.319,198.038l2.686-10.058h0.36l2.684,10.058H462.319z M471.054,209.258h8.058l-8.175-27.248h-11.503l-8.134,27.248
			h8.054l1.485-5.649h8.694L471.054,209.258z M434.111,194.594v-6.772h3.166c2.122,0,3.363,1.644,3.363,3.365
			c0,1.724-1.241,3.407-3.363,3.407H434.111z M426.256,209.258h7.855v-9.577h2.003l4.728,9.577h8.856l-5.012-8.413
			c-0.521-0.883-1.161-1.683-1.521-1.924l0.041-0.161c2.401-1.081,5.808-3.128,5.808-7.773c0-4.889-3.884-8.977-10.258-8.977
			h-12.501V209.258z M406.104,194.594v-6.731h3.082c1.725,0,3.286,1.441,3.286,3.363c0,1.967-1.562,3.368-3.286,3.368H406.104z
			 M398.248,209.258h7.855v-8.813h4.006c6.372,0,10.336-4.049,10.336-9.058c0-5.007-3.964-9.377-10.336-9.377h-11.861V209.258z
			 M364.268,209.258h10.739l8.175-27.248h-8.816l-4.649,20.397h-0.159l-4.646-20.397h-8.815L364.268,209.258z M330.406,209.258
			h7.856v-20.877h6.771v-6.371h-21.438v6.371h6.811V209.258z M306.927,209.899c6.411,0,11.74-3.085,11.74-10.698V182.01h-7.853
			v16.473c0,3.082-1.684,4.446-3.888,4.446s-3.886-1.364-3.886-4.446V182.01h-7.854v17.191
			C295.187,206.814,300.518,209.899,306.927,209.899 M271.466,209.258h10.738l8.175-27.248h-8.814l-4.648,20.397h-0.163
			l-4.646-20.397h-8.818L271.466,209.258z M252.433,209.699c3.247,0,5.97-0.842,7.615-1.681v-6.854
			c-1.563,0.842-3.368,1.563-6.214,1.563c-2.842,0-6.972-2.165-6.972-7.097c0-4.925,3.768-7.251,7.414-7.251
			c2.485,0,4.209,0.562,5.729,1.325v-6.774c-1.602-0.722-3.604-1.28-6.81-1.28c-8.055,0-14.909,5.288-14.909,13.98
			C238.286,204.329,244.418,209.699,252.433,209.699 M248.225,180.368h8.253l5.493-6.171h-6.814l-2.724,2.966h-0.16l-2.727-2.966
			h-6.811L248.225,180.368z"/>
		<path clip-path="url(#SVGID_2_)" fill="#0065BD" d="M555.04,168.456h7.854v-9.979l9.419-17.272h-8.694l-4.449,9.738h-0.159
			l-4.289-9.738h-8.896l9.215,17.272V168.456z M545.266,168.456l-9.217-14.066l9.096-13.185h-9.577l-7.613,12.545v-12.545h-7.854
			v27.251h7.854v-13.104l7.894,13.104H545.266z M504.231,168.456h7.854v-27.251h-7.854V168.456z M484.478,168.456h7.854v-20.877
			h6.771v-6.374h-21.438v6.374h6.812V168.456z M454.184,168.456h18.795v-6.212h-10.941v-4.408h10.581v-6.05h-10.581v-4.369h10.941
			v-6.212h-18.795V168.456z M420.365,168.456h7.855v-16.349h0.12l8.255,16.349h9.575v-27.251h-7.853v16.272h-0.121l-8.173-16.272
			h-9.659V168.456z M399.088,153.788v-6.771h3.165c2.124,0,3.367,1.643,3.367,3.367c0,1.724-1.243,3.404-3.367,3.404H399.088z
			 M391.235,168.456h7.853v-9.578h2.003l4.729,9.578h8.856l-5.01-8.417c-0.519-0.881-1.161-1.683-1.521-1.923l0.039-0.16
			c2.404-1.082,5.811-3.124,5.811-7.772c0-4.889-3.886-8.979-10.256-8.979h-12.504V168.456z M365.27,168.456h18.796v-6.212h-10.939
			v-4.408h10.577v-6.05h-10.577v-4.369h10.939v-6.212H365.27V168.456z M343.552,162.604v-5.689H348c1.684,0,2.766,1.405,2.766,2.806
			c0,1.562-1.082,2.884-2.766,2.884H343.552z M343.552,152.349v-5.291h3.608c1.602,0,2.643,1.243,2.643,2.644
			c0,1.404-1.041,2.647-2.643,2.647H343.552z M335.698,168.456h13.343c7.011,0,9.817-3.927,9.817-7.373
			c0-4.61-3.126-6.133-5.168-6.653v-0.159c1.844-0.722,3.925-2.446,3.925-5.77c0-3.767-3.005-7.296-9.255-7.296h-12.662V168.456z
			 M314.7,168.456h7.854v-9.979l9.416-17.272h-8.693l-4.45,9.738h-0.158l-4.289-9.738h-8.894l9.214,17.272V168.456z
			 M304.924,168.456l-9.216-14.066l9.097-13.185h-9.578l-7.613,12.545v-12.545h-7.853v27.251h7.853v-13.104l7.893,13.104H304.924z
			 M247.903,157.235l2.688-10.06h0.357l2.685,10.06H247.903z M256.639,168.456h8.055l-8.173-27.251h-11.502l-8.135,27.251h8.056
			l1.483-5.651h8.695L256.639,168.456z"/>
		<path clip-path="url(#SVGID_2_)" fill="#0065BD" d="M436.396,127.652h7.852v-9.979l9.418-17.27h-8.693l-4.45,9.736h-0.16
			l-4.287-9.736h-8.897l9.219,17.27V127.652z M426.618,127.652l-9.219-14.066l9.097-13.184h-9.574l-7.615,12.542v-12.542h-7.853
			v27.25h7.853V114.55l7.893,13.103H426.618z M385.588,127.652h7.853v-27.25h-7.853V127.652z M365.832,127.652h7.854v-20.876h6.77
			v-6.373h-21.438v6.373h6.814V127.652z M342.71,121.32c-3.486,0-5.248-2.806-5.248-7.293c0-4.488,1.762-7.292,5.248-7.292
			c3.528,0,5.17,2.804,5.17,7.292C347.88,118.515,346.238,121.32,342.71,121.32 M342.71,128.293c8.136,0,13.582-5.168,13.582-14.266
			c0-9.094-5.446-14.266-13.582-14.266c-8.093,0-13.662,5.172-13.662,14.266C329.048,123.125,334.617,128.293,342.71,128.293
			 M308.932,121.801v-5.691h4.447c1.686,0,2.767,1.404,2.767,2.807c0,1.562-1.081,2.885-2.767,2.885H308.932z M308.932,111.543
			v-5.288h3.607c1.602,0,2.641,1.242,2.641,2.644c0,1.401-1.039,2.644-2.641,2.644H308.932z M301.077,127.652h13.346
			c7.01,0,9.817-3.927,9.817-7.372c0-4.61-3.129-6.132-5.17-6.653v-0.16c1.842-0.721,3.927-2.445,3.927-5.77
			c0-3.767-3.007-7.295-9.26-7.295h-12.66V127.652z M281.084,121.32c-3.489,0-5.25-2.806-5.25-7.293c0-4.488,1.762-7.292,5.25-7.292
			c3.524,0,5.168,2.804,5.168,7.292C286.252,118.515,284.608,121.32,281.084,121.32 M281.084,128.293
			c8.134,0,13.582-5.168,13.582-14.266c0-9.094-5.448-14.266-13.582-14.266c-8.096,0-13.667,5.172-13.667,14.266
			C267.417,123.125,272.988,128.293,281.084,128.293 M247.745,112.985v-6.771h3.165c2.124,0,3.367,1.643,3.367,3.368
			c0,1.722-1.244,3.404-3.367,3.404H247.745z M239.89,127.652h7.855v-9.577h2.002l4.729,9.577h8.854l-5.005-8.416
			c-0.522-0.881-1.162-1.682-1.524-1.923l0.039-0.159c2.404-1.083,5.81-3.127,5.81-7.775c0-4.89-3.884-8.977-10.256-8.977H239.89
			V127.652z"/>
		<path clip-path="url(#SVGID_2_)" fill="#0065BD" d="M515.052,86.85h7.854v-9.98l9.416-17.27h-8.695l-4.448,9.739h-0.158
			l-4.287-9.739h-8.896l9.215,17.27V86.85z M505.275,86.85l-9.217-14.067l9.097-13.183h-9.578l-7.611,12.542V59.6h-7.854v27.25
			h7.854V73.746l7.894,13.104H505.275z M464.243,86.85h7.854V59.6h-7.854V86.85z M444.489,86.85h7.852V65.971h6.771V59.6h-21.438
			v6.371h6.814V86.85z M420.767,75.627l2.684-10.057h0.362l2.684,10.057H420.767z M429.503,86.85h8.052l-8.173-27.25h-11.501
			l-8.134,27.25h8.052l1.485-5.652h8.696L429.503,86.85z M375.808,86.85h7.494V70.219h0.117l7.056,11.581h0.56l6.732-11.62h0.119
			v16.67h7.654V59.6h-9.095l-5.611,9.659h-0.121l-5.608-9.659h-9.297V86.85z M354.528,72.183v-6.772h3.168
			c2.124,0,3.362,1.643,3.362,3.366c0,1.724-1.238,3.406-3.362,3.406H354.528z M346.677,86.85h7.852v-9.579h2.007l4.728,9.579h8.856
			l-5.012-8.417c-0.521-0.88-1.163-1.682-1.523-1.923l0.041-0.161c2.404-1.081,5.811-3.126,5.811-7.773
			c0-4.889-3.888-8.976-10.258-8.976h-12.501V86.85z M326.682,80.515c-3.487,0-5.251-2.803-5.251-7.292
			c0-4.487,1.764-7.292,5.251-7.292c3.523,0,5.168,2.805,5.168,7.292C331.85,77.712,330.205,80.515,326.682,80.515 M326.682,87.489
			c8.134,0,13.584-5.169,13.584-14.266c0-9.095-5.45-14.265-13.584-14.265c-8.096,0-13.663,5.169-13.663,14.265
			C313.019,82.32,318.586,87.489,326.682,87.489 M289.576,59.6v27.25h7.854V76.31h10.657v-6.05h-10.657v-4.448h10.778V59.6H289.576z
			 M255.756,86.85h7.855V70.501h0.123l8.253,16.349h9.575V59.6h-7.854v16.269h-0.12L265.413,59.6h-9.657V86.85z M239.89,86.85h7.855
			V59.6h-7.855V86.85z"/>
		<path clip-path="url(#SVGID_2_)" fill="#0065BD" d="M559.088,46.045h7.854V25.167h6.771v-6.369h-21.438v6.369h6.812V46.045z
			 M535.606,46.687c6.413,0,11.742-3.086,11.742-10.699v-17.19h-7.854v16.469c0,3.084-1.684,4.449-3.888,4.449
			s-3.884-1.365-3.884-4.449V18.797h-7.855v17.19C523.867,43.601,529.195,46.687,535.606,46.687 M504.312,46.045h7.854V25.167h6.77
			v-6.369h-21.437v6.369h6.812V46.045z M484.517,46.045h7.855V18.797h-7.855V46.045z M464.764,46.045h7.853V25.167h6.773v-6.369
			h-21.438v6.369h6.812V46.045z M443.728,46.687c7.45,0,11.579-4.689,11.579-9.215c0-4.45-2.284-7.054-6.73-8.135
			c-1.805-0.443-2.807-0.602-4.167-0.882c-1.845-0.401-2.647-0.922-2.647-1.964c0-1.202,1.363-1.963,4.407-1.963
			c3.327,0,6.094,1.042,7.454,1.802v-6.77c-1.762-0.762-4.649-1.404-7.854-1.404c-6.771,0-11.779,3.568-11.779,9.097
			c0,4.206,2.363,6.852,6.051,7.772c2.042,0.521,3.125,0.761,4.889,1.204c1.479,0.359,2.484,0.84,2.484,1.922
			c0,1.361-1.443,2.124-4.09,2.124c-3.605,0-7.253-1.563-9.015-2.804v7.131C436.516,45.845,439.64,46.687,443.728,46.687
			 M401.452,46.045h7.854V29.696h0.121l8.254,16.349h9.578V18.797h-7.854v16.269h-0.124l-8.175-16.269h-9.655V46.045z
			 M385.586,46.045h7.853V18.797h-7.853V46.045z M353.248,46.045h7.854v-9.978l9.418-17.27h-8.698l-4.447,9.737h-0.159l-4.289-9.737
			h-8.894l9.215,17.27V46.045z M353.008,17.154h6.651l5.651-6.173h-9.138L353.008,17.154z M343.47,46.045l-9.215-14.064
			l9.098-13.184h-9.577l-7.615,12.542V18.797h-7.854v27.248h7.854V32.941l7.896,13.104H343.47z M300.395,46.687
			c7.454,0,11.583-4.689,11.583-9.215c0-4.45-2.284-7.054-6.732-8.135c-1.803-0.443-2.808-0.602-4.17-0.882
			c-1.84-0.401-2.643-0.922-2.643-1.964c0-1.202,1.362-1.963,4.406-1.963c3.328,0,6.091,1.042,7.455,1.802v-6.77
			c-1.764-0.762-4.649-1.404-7.856-1.404c-6.771,0-11.78,3.568-11.78,9.097c0,4.206,2.366,6.852,6.053,7.772
			c2.042,0.521,3.122,0.761,4.889,1.204c1.481,0.359,2.485,0.84,2.485,1.922c0,1.361-1.444,2.124-4.089,2.124
			c-3.606,0-7.255-1.563-9.015-2.804v7.131C293.183,45.845,296.307,46.687,300.395,46.687 M265.975,46.045h18.796v-6.212h-10.944
			v-4.408h10.582v-6.05h-10.582v-4.367h10.944v-6.211h-18.796V46.045z M252.433,46.484c3.247,0,5.97-0.84,7.615-1.682v-6.852
			c-1.563,0.842-3.368,1.562-6.214,1.562c-2.842,0-6.972-2.164-6.972-7.091c0-4.93,3.768-7.255,7.414-7.255
			c2.485,0,4.209,0.562,5.729,1.324v-6.771c-1.602-0.721-3.604-1.283-6.81-1.283c-8.055,0-14.909,5.29-14.909,13.986
			C238.286,41.117,244.418,46.484,252.433,46.484 M248.225,17.154h8.253l5.493-6.173h-6.814l-2.724,2.967h-0.16l-2.727-2.967h-6.811
			L248.225,17.154z"/>
	</g>
</g>
</svg>
